<svg xmlns="http://www.w3.org/2000/svg" width="88.364" height="83.901" viewBox="0 0 88.364 83.901"><defs><style>.a{fill:#fff;}</style></defs><g transform="translate(-372.284 -678.38)"><path class="a" d="M385.9,744.8h56.236c.87,0,1.484.949,1.484,2.281s-.614,2.271-1.484,2.271H385.9c-.872,0-1.463-.938-1.463-2.271S385.031,744.8,385.9,744.8Z" transform="translate(2.434 12.928)"/><rect class="a" width="18.956" height="11.193" transform="translate(406.989 742.312)"/><g transform="translate(387.579 732.963)"><path class="a" d="M441.382,727.237H386.775a1.585,1.585,0,0,1,0-3.17h54.606a1.585,1.585,0,1,1,0,3.17Z" transform="translate(-385.191 -724.067)"/></g><g transform="translate(394.73 678.38)"><path class="a" d="M396.343,703.848h.144a2.754,2.754,0,0,0,2.859-2.637v-5.258a2.613,2.613,0,0,0-1.59-2.354c.407-7.116,6.827-12.789,14.662-12.789s14.257,5.673,14.664,12.789a2.613,2.613,0,0,0-1.59,2.354v5.258a2.473,2.473,0,0,0,.2.979,14.858,14.858,0,0,1-6.826,2.094,1.767,1.767,0,0,0-1.44-.721h-2.276a1.583,1.583,0,1,0,0,3.154h2.276a1.722,1.722,0,0,0,1.514-.851,16.3,16.3,0,0,0,7.87-2.439,3,3,0,0,0,1.539.419h.143a2.753,2.753,0,0,0,2.86-2.636v-5.258a2.618,2.618,0,0,0-1.631-2.372c-.419-8.444-8.02-15.2-17.3-15.2s-16.885,6.757-17.3,15.2a2.617,2.617,0,0,0-1.634,2.372v5.258A2.755,2.755,0,0,0,396.343,703.848Z" transform="translate(-390.683 -678.38)"/><path class="a" d="M409.455,704.271a4.43,4.43,0,0,1,4.493-4.353h2.276a4.6,4.6,0,0,1,2.289.61,13.36,13.36,0,0,0,3-.781v-4.662a5.3,5.3,0,0,1,1.417-3.578c-1.015-5.026-5.893-8.787-11.713-8.787s-10.7,3.762-11.712,8.788a5.3,5.3,0,0,1,1.417,3.577v5.258a5.212,5.212,0,0,1-.245,1.58,13.081,13.081,0,0,0,10.007,5.334A4.264,4.264,0,0,1,409.455,704.271Z" transform="translate(-389.478 -677.511)"/><path class="a" d="M412.951,705.757a25.581,25.581,0,0,0-21.053,11.1,4.345,4.345,0,0,0-.748,2.438v2.037a3.112,3.112,0,0,0,3.115,3.115h37.373a3.112,3.112,0,0,0,3.115-3.115v-2.037a4.405,4.405,0,0,0-.769-2.469A25.564,25.564,0,0,0,412.951,705.757Z" transform="translate(-391.15 -672.897)"/></g><g transform="translate(372.284 689.793)"><path class="a" d="M454.239,687.889H435.887a17.607,17.607,0,0,1,.442,2.235,5.493,5.493,0,0,1,.958,1.156h16.951a2.965,2.965,0,0,1,3.034,3.028v40.31a2.976,2.976,0,0,1-3.034,3.051H378.694a2.975,2.975,0,0,1-3.033-3.051v-40.31a2.964,2.964,0,0,1,3.033-3.028h16.954a5.5,5.5,0,0,1,.96-1.156,17.769,17.769,0,0,1,.441-2.235H378.694a6.346,6.346,0,0,0-6.41,6.419v40.31a6.358,6.358,0,0,0,6.41,6.443h75.545a6.358,6.358,0,0,0,6.41-6.443v-40.31A6.346,6.346,0,0,0,454.239,687.889Z" transform="translate(-372.284 -687.889)"/></g></g></svg>