<svg xmlns="http://www.w3.org/2000/svg" width="54.314" height="54.314" viewBox="0 0 54.314 54.314"><defs><style>.a{fill:#2569a8;}</style></defs><g transform="translate(0)"><g transform="translate(14.631 9.377)"><path class="a" d="M401.406,201.958a2.688,2.688,0,0,1-1.924-.811,55.681,55.681,0,0,0-5.95-5.583,2.687,2.687,0,0,1,3.028-4.44,39.2,39.2,0,0,1,4.577,4.071c4.151-5.216,14.466-17,25.9-21.139a2.687,2.687,0,1,1,1.83,5.054c-12.96,4.695-25.151,21.556-25.272,21.726a2.686,2.686,0,0,1-1.982,1.115C401.542,201.955,401.474,201.958,401.406,201.958Z" transform="translate(-392.386 -173.895)"/></g><g transform="translate(0 0)"><path class="a" d="M401.119,216.4A27.157,27.157,0,1,1,417.2,167.358a2.688,2.688,0,0,1-3.186,4.33,21.783,21.783,0,1,0,8.887,17.556,21.882,21.882,0,0,0-.71-5.54,2.687,2.687,0,1,1,5.2-1.362A27.178,27.178,0,0,1,401.119,216.4Z" transform="translate(-373.962 -162.087)"/></g></g></svg>