<svg xmlns="http://www.w3.org/2000/svg" width="39.035" height="39.035" viewBox="0 0 39.035 39.035"><defs><style>.a{fill:#fff;}</style></defs><path class="a" d="M-36.971,0H-58.812a8.6,8.6,0,0,0-8.6,8.6V30.438a8.6,8.6,0,0,0,8.6,8.6H-48.7V23.94h-5.344V17.693H-48.7v-5.5a7.328,7.328,0,0,1,1.584-4.62,8.378,8.378,0,0,1,.628-.693A7.513,7.513,0,0,1-41.2,4.769H-36.1V10.5h-3.461A2.894,2.894,0,0,0-42.453,13.4v4.294h6.279l-.8,6.247h-5.477V39.035h5.481a8.6,8.6,0,0,0,8.6-8.6V8.6A8.6,8.6,0,0,0-36.971,0Z" transform="translate(67.409)"/></svg>