<svg xmlns="http://www.w3.org/2000/svg" xmlns:xlink="http://www.w3.org/1999/xlink" width="269" height="250" viewBox="0 0 269 250"><defs><style>.a{fill:#fcaf2a;}.b,.e{fill:#fff;}.c{clip-path:url(#a);}.d{fill:url(#b);}.e{font-size:20px;font-family:OpenSans-Semibold, Open Sans;font-weight:600;}</style><clipPath id="a"><rect class="a" width="269" height="58" rx="5"/></clipPath><linearGradient id="b" x1="0.5" y1="0.799" x2="0.717" y2="-0.517" gradientUnits="objectBoundingBox"><stop offset="0" stop-color="#fcaf2a"/><stop offset="1" stop-color="#ff5e24"/></linearGradient></defs><g transform="translate(-1135 -2042)"><g transform="translate(1190.4 2309.88)"><path class="b" d="M13.41-201.459H115.5c1.582,0,2.7,1.712,2.7,4.113s-1.115,4.1-2.7,4.1H13.41c-1.58,0-2.654-1.693-2.654-4.1S11.83-201.459,13.41-201.459Z" transform="translate(14.156 77.347)"/><rect class="b" width="34.183" height="20.184" transform="translate(61.539 -151.915)"/><g transform="translate(26.535 -168.993)"><path class="b" d="M112.839-216.478H14.365a2.859,2.859,0,0,1-2.859-2.857,2.86,2.86,0,0,1,2.859-2.859h98.474a2.858,2.858,0,0,1,2.857,2.859A2.857,2.857,0,0,1,112.839-216.478Z" transform="translate(-11.506 222.194)"/></g><g transform="translate(39.433 -267.88)"><path class="b" d="M24.956-221.954h.26a4.966,4.966,0,0,0,5.158-4.753v-9.485a4.717,4.717,0,0,0-2.87-4.245C28.24-253.27,39.817-263.5,53.945-263.5s25.712,10.229,26.446,23.063a4.717,4.717,0,0,0-2.87,4.245v9.485a4.452,4.452,0,0,0,.368,1.764,26.8,26.8,0,0,1-12.312,3.777,3.182,3.182,0,0,0-2.6-1.3h-4.1a2.977,2.977,0,0,0-3.1,2.842,2.977,2.977,0,0,0,3.1,2.846h4.1a3.112,3.112,0,0,0,2.729-1.535,29.354,29.354,0,0,0,14.19-4.4,5.419,5.419,0,0,0,2.777.755h.258a4.963,4.963,0,0,0,5.156-4.753v-9.483a4.722,4.722,0,0,0-2.939-4.277C84.4-255.7,70.69-267.88,53.947-267.88s-30.452,12.184-31.2,27.413A4.722,4.722,0,0,0,19.8-236.19v9.483A4.969,4.969,0,0,0,24.956-221.954Z" transform="translate(-14.748 267.88)"/><path class="b" d="M43.765-224.676a7.989,7.989,0,0,1,8.1-7.848h4.1a8.284,8.284,0,0,1,4.128,1.1,24.2,24.2,0,0,0,5.4-1.411v-8.407a9.566,9.566,0,0,1,2.554-6.452c-1.831-9.063-10.628-15.846-21.123-15.846s-19.288,6.784-21.119,15.848a9.552,9.552,0,0,1,2.556,6.45v9.485a9.334,9.334,0,0,1-.444,2.846,23.59,23.59,0,0,0,18.045,9.619A7.7,7.7,0,0,1,43.765-224.676Z" transform="translate(-7.739 272.932)"/><path class="b" d="M56.781-240.5a46.129,46.129,0,0,0-37.967,20.011,7.852,7.852,0,0,0-1.348,4.4v3.673a5.612,5.612,0,0,0,5.617,5.617h67.4a5.61,5.61,0,0,0,5.615-5.617V-216.1a7.941,7.941,0,0,0-1.385-4.452A46.1,46.1,0,0,0,56.781-240.5Z" transform="translate(-17.465 299.76)"/></g><g transform="translate(-1.4 -247.3)"><path class="b" d="M147.052-258.372H113.809a31.6,31.6,0,0,1,.8,4.03,9.9,9.9,0,0,1,1.736,2.084h30.708a5.357,5.357,0,0,1,5.493,5.461V-174.1a5.378,5.378,0,0,1-5.493,5.5H10.21a5.378,5.378,0,0,1-5.493-5.5V-246.8a5.357,5.357,0,0,1,5.493-5.461H40.92a9.846,9.846,0,0,1,1.738-2.084,31.227,31.227,0,0,1,.8-4.03H10.21A11.469,11.469,0,0,0-1.4-246.8V-174.1a11.49,11.49,0,0,0,11.61,11.619H147.052a11.49,11.49,0,0,0,11.61-11.619V-246.8A11.469,11.469,0,0,0,147.052-258.372Z" transform="translate(1.4 258.372)"/></g></g><g transform="translate(-6446 -396)"><g class="c" transform="translate(7581 2630)"><rect class="a" width="269" height="58" rx="5"/><ellipse class="d" cx="129.5" cy="63.5" rx="129.5" ry="63.5" transform="translate(118 -11)"/></g><text class="e" transform="translate(7609 2646)"><tspan x="-105.859" y="21">Haaranalyse starten »</tspan></text></g></g></svg>