<svg xmlns="http://www.w3.org/2000/svg" width="64.378" height="93.75" viewBox="0 0 64.378 93.75"><defs><style>.a{fill:#2569a8;}</style></defs><path class="a" d="M30.5,42.773A27.854,27.854,0,0,0,7.577,54.856a4.738,4.738,0,0,0-.813,2.655v2.218a3.388,3.388,0,0,0,3.391,3.39H50.848a3.388,3.388,0,0,0,3.391-3.39V57.511a4.791,4.791,0,0,0-.838-2.689A27.833,27.833,0,0,0,30.5,42.773Z" transform="translate(1.688 10.674)"/><g transform="translate(0)"><path class="a" d="M51.984,0H12.394A12.407,12.407,0,0,0,0,12.394V81.356A12.407,12.407,0,0,0,12.394,93.75H51.984A12.407,12.407,0,0,0,64.378,81.356V12.394A12.407,12.407,0,0,0,51.984,0ZM43.449,4.222l-1.813,7.086H22.742L20.93,4.222Zm-31.055,0h4.177l2.487,9.72A2.109,2.109,0,0,0,21.1,15.531H43.275a2.111,2.111,0,0,0,2.046-1.588l2.485-9.72h4.177a8.182,8.182,0,0,1,8.173,8.172V78.683H4.222V12.394A8.182,8.182,0,0,1,12.394,4.222Z"/></g><path class="a" d="M28.474,18.252A13.587,13.587,0,1,0,42.062,31.84,13.6,13.6,0,0,0,28.474,18.252Zm-6.333,6.125c1.1,0,2.006.512,2.157,1.222l.009.071c.237,1.4,2.768,2.253,4.167,2.253,1.457,0,3.945-.861,4.171-2.27l.024-.127A2.173,2.173,0,0,1,34.8,24.377a2.863,2.863,0,0,1,.642.1,10.151,10.151,0,1,1-13.945,0A2.841,2.841,0,0,1,22.142,24.377Z" transform="translate(3.715 4.555)"/></svg>