<svg xmlns="http://www.w3.org/2000/svg" width="39.001" height="39.002" viewBox="0 0 39.001 39.002"><defs><style>.a{fill:#fff;}</style></defs><path class="a" d="M-36.55,53.006H-58.371a8.591,8.591,0,0,0-8.59,8.59V83.417a8.59,8.59,0,0,0,8.59,8.59H-36.55a8.59,8.59,0,0,0,8.59-8.59V61.6A8.591,8.591,0,0,0-36.55,53.006Zm3.633,26.984a7.08,7.08,0,0,1-7.071,7.071H-54.932A7.079,7.079,0,0,1-62,79.99V65.046a7.079,7.079,0,0,1,7.071-7.071h14.944a7.08,7.08,0,0,1,7.071,7.071Z" transform="translate(66.961 -53.006)"/><path class="a" d="M-37.875,62.469H-52.819a4.7,4.7,0,0,0-4.693,4.693V82.106A4.7,4.7,0,0,0-52.819,86.8h14.944a4.7,4.7,0,0,0,4.693-4.693V67.162A4.7,4.7,0,0,0-37.875,62.469Zm-7.472,21.106a8.95,8.95,0,0,1-8.94-8.941,8.95,8.95,0,0,1,8.94-8.94,8.95,8.95,0,0,1,8.94,8.94A8.95,8.95,0,0,1-45.347,83.575Zm8.8-15.9A1.562,1.562,0,0,1-38.1,66.112a1.562,1.562,0,0,1,1.561-1.56,1.562,1.562,0,0,1,1.561,1.56A1.562,1.562,0,0,1-36.544,67.672Z" transform="translate(64.848 -55.122)"/><path class="a" d="M-43.734,69.685A6.569,6.569,0,0,0-50.3,76.247a6.569,6.569,0,0,0,6.562,6.562,6.569,6.569,0,0,0,6.562-6.562A6.569,6.569,0,0,0-43.734,69.685Z" transform="translate(63.235 -56.735)"/></svg>