<svg xmlns="http://www.w3.org/2000/svg" xmlns:xlink="http://www.w3.org/1999/xlink" width="30" height="30" viewBox="0 0 30 30"><defs><style>.a{fill:#366aa7;}.b{clip-path:url(#a);}</style><clipPath id="a"><rect class="a" width="30" height="30"/></clipPath></defs><g transform="translate(-358.91 -443.401)"><g transform="translate(358.91 443.401)"><g class="b" transform="translate(0 0)"><g transform="translate(0 0)"><g class="b"><path class="a" d="M382.476,470.565a1.474,1.474,0,0,1-1.056-.445,30.453,30.453,0,0,0-3.265-3.064,1.475,1.475,0,0,1,1.662-2.436,21.523,21.523,0,0,1,2.512,2.234c2.278-2.862,7.938-9.328,14.209-11.6a1.475,1.475,0,0,1,1,2.774c-7.111,2.576-13.8,11.828-13.867,11.921a1.475,1.475,0,0,1-1.088.612c-.037,0-.075,0-.112,0" transform="translate(-369.192 -450.131)"/><path class="a" d="M374,473.162a14.9,14.9,0,1,1,8.824-26.911,1.475,1.475,0,1,1-1.748,2.376,11.953,11.953,0,1,0,4.876,9.633,12,12,0,0,0-.389-3.04,1.475,1.475,0,0,1,2.853-.747A14.913,14.913,0,0,1,374,473.162" transform="translate(-358.795 -443.468)"/></g></g></g></g></g></svg>