<svg xmlns="http://www.w3.org/2000/svg" width="54.008" height="55.041" viewBox="0 0 54.008 55.041"><defs><style>.a{fill:#2569a8;}</style></defs><path class="a" d="M408.935,338.754a23.115,23.115,0,0,1-28.394-22.481,23.01,23.01,0,0,1,.967-6.6,17.729,17.729,0,0,0,3.322,3.09c1.187.926,2.533,1.976,2.41,2.592a1.882,1.882,0,0,1-.335.715,1.994,1.994,0,0,0-.327,1.924,5.178,5.178,0,0,0,2.03,2.4,4.114,4.114,0,0,1,1.683,1.944,11.216,11.216,0,0,1-.1,3.715c-.327,2.61-.7,5.568,1.589,7.4a3.749,3.749,0,0,0,2.007,1.014,1.037,1.037,0,0,0,.528-.137c.789-.451.621-1.62.442-2.858a5.82,5.82,0,0,1-.108-1.608c.274-.98,2.009-2.7,3.4-4.084a25.338,25.338,0,0,0,2.379-2.557c1.588-2.187,2.074-3.289,1.857-4.212s-1.062-1.352-2.137-1.912c-.533-.277-1.135-.593-1.795-1.02a5.967,5.967,0,0,1-1.759-2.2c-.728-1.271-1.554-2.711-3.5-3.068a4.989,4.989,0,0,0-1.561.058,2.642,2.642,0,0,1-1.255.014c-.513-.32-.528-.7-.512-1.392a2.078,2.078,0,0,0-.588-1.827,2.2,2.2,0,0,0-1.913-.432c-.449.066-.534.062-.7-.141a.277.277,0,0,1-.079-.267,2.616,2.616,0,0,1,1.416-1.213c1.751-.719,2.137-1.27,2.525-2.028a3.9,3.9,0,0,1,1.657-1.707,10.349,10.349,0,0,1,6.233-2.082,3.076,3.076,0,0,0,2.189-.59,1.586,1.586,0,0,0,.562-1.124c.043-1.007-.863-1.969-1.911-3.082-.343-.364-.7-.749-1.028-1.138a23.017,23.017,0,0,1,4.262-.633,3.451,3.451,0,0,1,.667,1.229,3.444,3.444,0,0,0,2.137,2.418,2.97,2.97,0,0,0,.853.113,7.736,7.736,0,0,0,5.182-2.482,23.26,23.26,0,0,1,2.462,1.016c.036.213.077.427.12.647a8.128,8.128,0,0,1,.187,3.077,5.835,5.835,0,0,1-.47,1.1c-.5,1.019-1.025,2.073-.653,2.911a1.4,1.4,0,0,0,.955.78,4.192,4.192,0,0,0,2.364-.253,4.9,4.9,0,0,1,2.139-.321,2.42,2.42,0,0,1,1.7,1.148,3.3,3.3,0,0,0,2.707,1.457,4.488,4.488,0,0,0,1.455-.272,22.9,22.9,0,0,1,1.116,2.5,2.214,2.214,0,1,0,4.155-1.531,27.508,27.508,0,1,0-19.518,36.3,2.214,2.214,0,1,0-1.012-4.311Z" transform="translate(-376.113 -288.752)"/><path class="a" d="M424.454,313.184a11.776,11.776,0,0,0-11.762,11.763c0,11.66,10.528,21.186,10.977,21.586a1.183,1.183,0,0,0,1.573,0c.448-.4,10.977-9.926,10.977-21.586A11.776,11.776,0,0,0,424.454,313.184Zm0,16.376a4.613,4.613,0,1,1,4.614-4.612A4.618,4.618,0,0,1,424.454,329.56Z" transform="translate(-382.21 -292.824)"/></svg>