<svg xmlns="http://www.w3.org/2000/svg" width="146.04" height="38.053" viewBox="0 0 146.04 38.053"><defs><style>.a{fill:#a2cbf2;}.b{fill:#fff;}</style></defs><g transform="translate(-67.982 -331.881)"><g transform="translate(67.982 331.881)"><path class="a" d="M68.358,349.024a5.391,5.391,0,0,1,3.5-3.231,6,6,0,0,1,1.375-.183c2.517-.007,5.639,0,8.157,0h.41v-.44c0-2.555,0-5.11,0-7.665a5.645,5.645,0,0,1,1.781-4.324,4.959,4.959,0,0,1,2.56-1.3c-.242.4-.461.732-.656,1.082a10.916,10.916,0,0,0-1.341,4.291,16.238,16.238,0,0,0,.851,6.381c.494,1.631,1.992,4.749,1.727,5.534-.144.427-.39.815-.563,1.233a6.827,6.827,0,0,0-.571,2.684A4.1,4.1,0,0,0,86,354.98a5.131,5.131,0,0,1,.231,2.387,36.427,36.427,0,0,1-1.55,8.533c-.355.967-.809,1.894-1.245,2.9a5.448,5.448,0,0,1-1.257-1.931,5.987,5.987,0,0,1-.379-2.2q-.005-3.832,0-7.665v-.459h-.426c-2.491,0-5.586.008-8.077,0a5.289,5.289,0,0,1-5.062-3.853,5.189,5.189,0,0,1-.192-2.34c5.085,3.2,10.965,4.088,16.964,3.927-.359-1.1.246-3.24.4-3.706.091-.284-.064-.474-.347-.423a4.775,4.775,0,0,0-.9.273C79.831,352.381,69.7,349.586,68.358,349.024Z" transform="translate(-67.982 -331.881)"/><g transform="translate(16.594 16.224)"><path class="b" d="M126.651,369.836a.636.636,0,0,0-.345-.4c-1.243-.553-6.065-2.659-15.771,3.638a.386.386,0,0,0-.181.269c-.208,1.533-.36,3.076-.612,4.6a35.231,35.231,0,0,1-2.24,8.422c-.578,1.2-1.26,2.337-1.906,3.522.034.019.117.071.207.112a4.89,4.89,0,0,0,2.8.43,5.3,5.3,0,0,0,4.468-5.35V376.85h.465c2.451,0,5.657.011,8.107,0A5.355,5.355,0,0,0,126.651,369.836Zm-4.628,3.715s-2.017-.351-1.957-2.145c0,0,.056-1.734,2.452-1.44a1.644,1.644,0,0,1,.54.164,2.242,2.242,0,0,1,1.4,1.915S124.435,373.8,122.023,373.552Z" transform="translate(-105.595 -368.657)"/></g><g transform="translate(17.335 0.084)"><path class="b" d="M122.853,345.724c-2.561-.041-5.878-.011-8.44-.011h-.408v-.473q0-3.9,0-7.793a5.17,5.17,0,0,0-.026-.585,5.3,5.3,0,0,0-4.76-4.786.47.47,0,0,0-.515.262,9.907,9.907,0,0,0-1.14,7.531,38.5,38.5,0,0,0,1.8,5.308c.678,1.754,1.792,4.8,1.855,5.168a73.107,73.107,0,0,1,7.62-2.478,14.942,14.942,0,0,1,6.53-.3l1.436.312A4.957,4.957,0,0,0,122.853,345.724Zm-11.43-7.358a1.413,1.413,0,0,1-.031.206c-.1.428-.536,1.916-1.94,1.93a1.168,1.168,0,0,1-.3-.035,1.667,1.667,0,0,1-1.2-1.687,3.019,3.019,0,0,1,.625-2.129,1.725,1.725,0,0,1,1.39-.729S111.611,335.942,111.423,338.366Z" transform="translate(-107.277 -332.073)"/></g></g><g transform="translate(116.371 340.723)"><path class="b" d="M188.552,373.574H177.669v-18.9h10.883v3.283h-6.876v4.149h6.4v3.283h-6.4v4.873h6.876Z" transform="translate(-177.669 -353.463)"/><path class="b" d="M216.011,372.594h-3.942V352.924h3.942Z" transform="translate(-196.893 -352.483)"/><path class="b" d="M231.5,353.85q0-1.926,2.145-1.926t2.146,1.926a1.878,1.878,0,0,1-.536,1.428,2.255,2.255,0,0,1-1.609.511Q231.5,355.789,231.5,353.85Zm4.11,18.185h-3.942v-14.45h3.942Z" transform="translate(-207.751 -351.924)"/><path class="b" d="M255.928,372.427a8.538,8.538,0,0,0,2.482-.453v2.934a8.847,8.847,0,0,1-3.619.659,4.431,4.431,0,0,1-3.445-1.2,5.206,5.206,0,0,1-1.079-3.587v-6.966H248.38v-1.667l2.171-1.319,1.137-3.05h2.52v3.076h4.045v2.96h-4.045v6.966a1.538,1.538,0,0,0,.472,1.241A1.86,1.86,0,0,0,255.928,372.427Z" transform="translate(-217.185 -355.198)"/><path class="b" d="M292.573,372.594h-3.942v-8.44q0-3.128-2.326-3.128a2.645,2.645,0,0,0-2.391,1.125,6.864,6.864,0,0,0-.737,3.645v6.8h-3.942V352.924h3.942v3.656q0,.478-.09,2.249l-.09,1.163h.206a4.567,4.567,0,0,1,4.188-2.119,5.12,5.12,0,0,1,3.864,1.37,5.441,5.441,0,0,1,1.319,3.929Z" transform="translate(-234.428 -352.483)"/><path class="b" d="M328.134,378.829l-.763-1.964h-.1a5.826,5.826,0,0,1-2.049,1.738,6.615,6.615,0,0,1-2.746.485A4.44,4.44,0,0,1,319.2,377.9a4.564,4.564,0,0,1-1.2-3.386,3.814,3.814,0,0,1,1.609-3.393,9.328,9.328,0,0,1,4.853-1.208l2.508-.078V369.2a1.965,1.965,0,0,0-2.249-2.2,10.246,10.246,0,0,0-4.071,1.047l-1.305-2.662a11.744,11.744,0,0,1,5.532-1.305,6.89,6.89,0,0,1,4.459,1.267,4.681,4.681,0,0,1,1.551,3.852v9.629Zm-1.163-6.7-1.525.052a4.885,4.885,0,0,0-2.559.62,1.948,1.948,0,0,0-.84,1.732q0,1.668,1.913,1.668a3.03,3.03,0,0,0,2.191-.789,2.769,2.769,0,0,0,.821-2.094Z" transform="translate(-256.092 -358.718)"/><path class="b" d="M357.528,353.85q0-1.926,2.146-1.926t2.145,1.926a1.878,1.878,0,0,1-.536,1.428,2.253,2.253,0,0,1-1.609.511Q357.528,355.789,357.528,353.85Zm4.11,18.185H357.7v-14.45h3.942Z" transform="translate(-278.182 -351.924)"/><path class="b" d="M385.785,364.141a6.387,6.387,0,0,1,1.331.116l-.3,3.7a4.525,4.525,0,0,0-1.163-.129,4.18,4.18,0,0,0-2.94.97,3.5,3.5,0,0,0-1.053,2.714v7.354H377.72v-14.45h2.985l.582,2.43h.194a5.435,5.435,0,0,1,1.816-1.958A4.479,4.479,0,0,1,385.785,364.141Z" transform="translate(-289.466 -358.751)"/></g></g></svg>