<svg xmlns="http://www.w3.org/2000/svg" width="26.684" height="20.81" viewBox="0 0 26.684 20.81"><defs><style>.a{fill:#fff;}</style></defs><path class="a" d="M11.1,8.44a5.589,5.589,0,0,0,2.746.884,6,6,0,0,0,2.832-.9L26.615.618A2.268,2.268,0,0,0,25.062,0H2.935A2.268,2.268,0,0,0,1.366.633Z" transform="translate(-0.657)"/><path class="a" d="M16.744,11.1a7.277,7.277,0,0,1-3.559,1.123A6.864,6.864,0,0,1,9.692,11.1l-.036-.028L.061,3.373A2.278,2.278,0,0,0,0,3.888V20.141a2.285,2.285,0,0,0,2.279,2.279H24.405a2.285,2.285,0,0,0,2.279-2.279V3.888a2.236,2.236,0,0,0-.068-.54Z" transform="translate(0 -1.61)"/></svg>