<svg xmlns="http://www.w3.org/2000/svg" width="115.337" height="49.63" viewBox="0 0 115.337 49.63"><defs><style>.a{fill:#fff;}</style></defs><g transform="translate(0 0)"><ellipse class="a" cx="10.085" cy="10.085" rx="10.085" ry="10.085" transform="translate(47.583)"/><ellipse class="a" cx="12.408" cy="12.408" rx="12.408" ry="12.408" transform="translate(12.407)"/><ellipse class="a" cx="12.408" cy="12.408" rx="12.408" ry="12.408" transform="translate(78.114)"/><path class="a" d="M289.225,114.927a32.827,32.827,0,0,1,10.166-9.532,23.546,23.546,0,0,0-32.244,0,32.837,32.837,0,0,1,10.161,9.532,8.794,8.794,0,0,1,.739,1.372h10.437A8.761,8.761,0,0,1,289.225,114.927Z" transform="translate(-225.598 -75.958)"/><path class="a" d="M261.445,102.909a29.116,29.116,0,0,0-23.964,12.631,4.948,4.948,0,0,0-.851,2.776v2.317a3.542,3.542,0,0,0,3.545,3.545h42.54a3.541,3.541,0,0,0,3.544-3.545v-2.317a5.006,5.006,0,0,0-.875-2.811A29.094,29.094,0,0,0,261.445,102.909Z" transform="translate(-236.63 -74.548)"/><path class="a" d="M309.7,102.909a29.117,29.117,0,0,0-23.964,12.631,4.947,4.947,0,0,0-.851,2.776v2.317a3.542,3.542,0,0,0,3.545,3.545h42.54a3.542,3.542,0,0,0,3.545-3.545v-2.317a5.006,5.006,0,0,0-.875-2.811A29.1,29.1,0,0,0,309.7,102.909Z" transform="translate(-219.184 -74.548)"/></g></svg>