<svg xmlns="http://www.w3.org/2000/svg" width="19.831" height="26.664" viewBox="0 0 19.831 26.664"><defs><style>.a{fill:#fff;}</style></defs><path class="a" d="M97.5,22.662,95.11,18.52c-.607-1.053-1.717-.849-2.637-.323l-1.447.835c-1.711.988-4.45-3.154-5.1-4.281s-2.866-5.572-1.156-6.559l1.447-.835c.92-.531,1.65-1.392,1.044-2.443S85.474,1.828,84.864.775A1.889,1.889,0,0,0,82.225.363l-.037.028c-.788.455-8.824,3.241-.868,17.022S95.706,25.627,96.5,25.17A1.889,1.889,0,0,0,97.519,22.7Z" transform="translate(-77.832 0)"/></svg>