<svg xmlns="http://www.w3.org/2000/svg" width="39.035" height="39.035" viewBox="0 0 39.035 39.035"><defs><style>.a{fill:#fff;}</style></defs><path class="a" d="M26.511,53H4.67a8.6,8.6,0,0,0-8.6,8.6v21.84a8.6,8.6,0,0,0,8.6,8.6H26.511a8.6,8.6,0,0,0,8.6-8.6V61.6A8.6,8.6,0,0,0,26.511,53ZM24.232,75.855c-2.97,3.683-7.785,3.927-10.005,1.667-.172-.173-.308-.377-.476-.584-.026.085-.047.154-.066.225-1.067,4.178-1.185,5.106-2.281,7.046a21.481,21.481,0,0,1-1.762,2.632c-.073.094-.141.217-.288.186s-.174-.179-.191-.307a22.589,22.589,0,0,1-.231-3.825c.056-1.669.262-2.242,2.415-11.293a.631.631,0,0,0-.05-.378,6.375,6.375,0,0,1-.167-4.23c.974-3.086,4.474-3.323,5.086-.776.377,1.575-.62,3.637-1.385,6.684-.634,2.515,2.325,4.3,4.855,2.467,2.332-1.693,3.239-5.748,3.067-8.623-.34-5.733-6.626-6.972-10.613-5.127C7.567,63.733,6.527,69.4,8.591,71.991c.262.328.464.53.377.864-.134.519-.25,1.041-.393,1.557a.553.553,0,0,1-.817.366,4.693,4.693,0,0,1-1.909-1.43c-1.753-2.172-2.255-6.465.064-10.1a12.132,12.132,0,0,1,11.7-5.161c5.208.592,8.5,4.151,9.117,8.188A13.629,13.629,0,0,1,24.232,75.855Z" transform="translate(3.927 -52.998)"/></svg>