<svg xmlns="http://www.w3.org/2000/svg" width="91.628" height="16.874" viewBox="0 0 91.628 16.874">
  <g id="Gruppe_566" data-name="Gruppe 566" transform="translate(-528.391 -461.813)">
    <path id="Polygon_4" data-name="Polygon 4" d="M7.66,0l2.3,4.945,5.362.681L11.378,9.364l1.016,5.366L7.66,12.1,2.926,14.731,3.942,9.364,0,5.627l5.362-.681Z" transform="translate(529.5 463)" fill="#fda428" stroke="#df7920" stroke-width="1"/>
    <path id="Polygon_9" data-name="Polygon 9" d="M7.66,0l2.3,4.945,5.362.681L11.378,9.364l1.016,5.366L7.66,12.1,2.926,14.731,3.942,9.364,0,5.627l5.362-.681Z" transform="translate(547.08 463)" fill="#fda428" stroke="#df7920" stroke-width="1"/>
    <path id="Polygon_10" data-name="Polygon 10" d="M7.66,0l2.3,4.945,5.362.681L11.378,9.364l1.016,5.366L7.66,12.1,2.926,14.731,3.942,9.364,0,5.627l5.362-.681Z" transform="translate(565.916 463)" fill="#fda428" stroke="#df7920" stroke-width="1"/>
    <path id="Polygon_11" data-name="Polygon 11" d="M7.66,0l2.3,4.945,5.362.681L11.378,9.364l1.016,5.366L7.66,12.1,2.926,14.731,3.942,9.364,0,5.627l5.362-.681Z" transform="translate(584.752 463)" fill="#fda428" stroke="#df7920" stroke-width="1"/>
    <path id="Polygon_12" data-name="Polygon 12" d="M7.66,0l2.3,4.945,5.362.681L11.378,9.364l1.016,5.366L7.66,12.1,2.926,14.731,3.942,9.364,0,5.627l5.362-.681Z" transform="translate(603.589 463)" fill="#fda428" stroke="#df7920" stroke-width="1"/>
  </g>
</svg>
