<svg xmlns="http://www.w3.org/2000/svg" width="93.797" height="87.622" viewBox="0 0 93.797 87.622"><defs><style>.a{fill:#2569a8;}</style></defs><g transform="translate(0)"><path class="a" d="M5.192,23.834h5.993l5.8,5.8a1.626,1.626,0,0,0,1.151.479,1.646,1.646,0,0,0,.626-.125,1.625,1.625,0,0,0,1.006-1.507V23.834h7.81a5.2,5.2,0,0,0,5.191-5.191V5.191A5.2,5.2,0,0,0,27.577,0H5.192A5.2,5.2,0,0,0,0,5.191V18.643A5.2,5.2,0,0,0,5.192,23.834Zm17-14.194h.15a2.275,2.275,0,0,1,0,4.551h-.15a2.275,2.275,0,0,1,0-4.551Zm-6.173,0h.149a2.275,2.275,0,0,1,0,4.551H16.02a2.275,2.275,0,0,1,0-4.551Zm-6.174,0H10a2.275,2.275,0,0,1,0,4.551h-.15a2.275,2.275,0,0,1,0-4.551Z"/><ellipse class="a" cx="11.921" cy="11.921" rx="11.921" ry="11.921" transform="translate(15.023 33.251)"/><path class="a" d="M27.9,69.061V66.017a8.322,8.322,0,0,1,1.433-4.66c.662-.96,1.375-1.872,2.109-2.763H6.173a5.024,5.024,0,0,0-.546.061A2.55,2.55,0,0,0,5.08,58.6,2.585,2.585,0,0,0,2.495,61.18v2.67c-.009.456-.01.926-.01,1.411,0,1.018-.024,1.973.01,2.836v1.245A2.585,2.585,0,0,0,5.08,71.928a2.637,2.637,0,0,0,.361-.036c.114.006.2.036.319.036H28.6A6.368,6.368,0,0,1,27.9,69.061Z" transform="translate(0.618 14.622)"/><g transform="translate(5.717 60.498)"><path class="a" d="M25.8,48.416A27.936,27.936,0,0,0,4.575,58.231H33.588a40.143,40.143,0,0,1,6.972-5.572A27.865,27.865,0,0,0,25.8,48.416Z" transform="translate(-4.575 -48.416)"/></g></g><ellipse class="a" cx="16.292" cy="16.292" rx="16.292" ry="16.292" transform="translate(46.595 23.172)"/><path class="a" d="M56.5,48.919A36.273,36.273,0,0,0,26.649,64.653a6.177,6.177,0,0,0-1.06,3.458V71A4.412,4.412,0,0,0,30,75.414H83A4.412,4.412,0,0,0,87.411,71V68.111a6.247,6.247,0,0,0-1.09-3.5A36.249,36.249,0,0,0,56.5,48.919Z" transform="translate(6.386 12.208)"/></svg>