<svg xmlns="http://www.w3.org/2000/svg" width="83.31" height="60.336" viewBox="0 0 83.31 60.336"><defs><style>.a{fill:#fff;}</style></defs><g transform="translate(0 47.03)"><path class="a" d="M416.945,477.355l-2.811,2.734.653,3.882a.744.744,0,0,1-.295.745.72.72,0,0,1-.466.155.71.71,0,0,1-.358-.092l-3.478-1.818-3.478,1.818a.763.763,0,0,1-.824,0,.745.745,0,0,1-.295-.746l.653-3.882-2.811-2.734a.826.826,0,0,1-.2-.808.8.8,0,0,1,.637-.528l3.883-.559L409.491,472a.808.808,0,0,1,1.4,0l1.739,3.526,3.882.559a.792.792,0,0,1,.637.528A.823.823,0,0,1,416.945,477.355Z" transform="translate(-368.528 -471.594)"/><path class="a" d="M447.764,477.355l-2.811,2.734.652,3.882a.743.743,0,0,1-.295.745.72.72,0,0,1-.466.155.713.713,0,0,1-.358-.092l-3.478-1.818-3.478,1.818a.763.763,0,0,1-.824,0,.746.746,0,0,1-.295-.746l.652-3.882-2.811-2.734a.823.823,0,0,1-.2-.808.792.792,0,0,1,.637-.528l3.882-.559L440.31,472a.807.807,0,0,1,1.1-.294.817.817,0,0,1,.294.294l1.739,3.526,3.883.559a.8.8,0,0,1,.637.528A.827.827,0,0,1,447.764,477.355Z" transform="translate(-364.676 -471.594)"/><path class="a" d="M386.126,477.355l-2.811,2.734.652,3.882a.743.743,0,0,1-.295.745.722.722,0,0,1-.466.155.71.71,0,0,1-.358-.092l-3.478-1.818-3.478,1.818a.763.763,0,0,1-.824,0,.746.746,0,0,1-.295-.746l.651-3.882-2.81-2.734a.826.826,0,0,1-.2-.808.793.793,0,0,1,.637-.528l3.883-.559L378.672,472a.807.807,0,0,1,1.1-.294.817.817,0,0,1,.294.294l1.739,3.526,3.882.559a.792.792,0,0,1,.637.528A.823.823,0,0,1,386.126,477.355Z" transform="translate(-372.38 -471.594)"/><path class="a" d="M401.535,477.355l-2.81,2.734.653,3.882a.745.745,0,0,1-.3.745.72.72,0,0,1-.466.155.705.705,0,0,1-.357-.092l-3.48-1.818-3.478,1.818a.761.761,0,0,1-.822,0,.746.746,0,0,1-.3-.746l.653-3.882-2.811-2.734a.823.823,0,0,1-.2-.808.792.792,0,0,1,.637-.528l3.882-.559L394.081,472a.809.809,0,0,1,1.4,0l1.739,3.526,3.882.559a.793.793,0,0,1,.637.528A.821.821,0,0,1,401.535,477.355Z" transform="translate(-370.454 -471.594)"/><path class="a" d="M432.355,477.355l-2.811,2.734.652,3.882a.744.744,0,0,1-.3.745.72.72,0,0,1-.466.155.706.706,0,0,1-.357-.092l-3.48-1.818-3.478,1.818a.761.761,0,0,1-.822,0,.746.746,0,0,1-.3-.746l.653-3.882-2.811-2.734a.823.823,0,0,1-.2-.808.792.792,0,0,1,.637-.528l3.882-.559L424.9,472a.809.809,0,0,1,1.4,0l1.739,3.526,3.882.559a.793.793,0,0,1,.637.528A.824.824,0,0,1,432.355,477.355Z" transform="translate(-366.602 -471.594)"/></g><g transform="translate(21.897 0)"><path class="a" d="M403.681,462.438c-.03-2.662-.032-5.326-.033-7.987s0-5.326.033-7.988c0,.357.006-1.329.033-2.424h-9.86a1.841,1.841,0,0,0-1.845,1.086c-.058.121-.11.25-.164.378v16.8a5.5,5.5,0,0,0,.468.8,1.584,1.584,0,0,0,1.262.54c3.373,0,6.745.009,10.118,0C403.687,463.06,403.683,462.561,403.681,462.438Z" transform="translate(-391.844 -428.008)"/><path class="a" d="M429.7,445.564a2.842,2.842,0,0,0-1.807-2.142,5.061,5.061,0,0,0-1.607-.252c-2.9-.022-5.792-.009-8.689-.008-.371,0-.386-.024-.326-.382.18-1.056.333-2.117.54-3.169a8,8,0,0,0-.158-4.222c-.428-1.244-.912-2.469-1.377-3.7a2.467,2.467,0,0,0-1.4-1.5,4.394,4.394,0,0,0-3.91.118,2.151,2.151,0,0,0-1.263,2.07c.037,1.362.047,2.725.1,4.086a2.227,2.227,0,0,1-.3,1.254c-1.051,1.8-2.068,3.628-3.165,5.4a30.121,30.121,0,0,1-1.944,2.592c-.024.03-.049.06-.077.089v3.684q0,6.974-.04,13.949a5.292,5.292,0,0,0,2.95.82c4.944-.029,9.89-.013,14.834-.013a8.02,8.02,0,0,0,2.539-.324,3.9,3.9,0,0,0,2.811-3.539,4.447,4.447,0,0,0-.216-1.933.426.426,0,0,1,.087-.331,4.329,4.329,0,0,0,.969-2.926,4.694,4.694,0,0,0-.258-1.119.457.457,0,0,1,.071-.493,4.039,4.039,0,0,0,.965-2.663,9.257,9.257,0,0,0-.277-1.408c-.023-.113-.039-.277.021-.345a4.21,4.21,0,0,0,.98-2.064.23.23,0,0,1,.054-.076V445.93C429.772,445.808,429.732,445.686,429.7,445.564Z" transform="translate(-390.29 -429.788)"/></g></svg>