<svg xmlns="http://www.w3.org/2000/svg" width="87.825" height="87.815" viewBox="0 0 87.825 87.815"><defs><style>.a{fill:#2569a8;}</style></defs><g transform="translate(-269.439 -332.599)"><path class="a" d="M357.264,376.537a43.484,43.484,0,0,1-6.706,23.277,7.72,7.72,0,0,0-2.686-2.415l-1.895-1.046a37.355,37.355,0,0,0,5.212-14.785,10.065,10.065,0,0,0-1.821,1.876c-1.389,1.874-4.2,6.581-7.808,10.475l-3.264-1.8c-.144-2.253-.288-4.47-.4-5.823v-.162a8.332,8.332,0,0,0-2.452-5.193,7.676,7.676,0,0,0-5.1-2.325,2.845,2.845,0,0,0-.4-.018,4.452,4.452,0,0,0-.5.018,7.833,7.833,0,0,0-4.85,2.325,5.264,5.264,0,0,0-.434.469,7.479,7.479,0,0,1-2.4-1.387c-2.489-2.345-2.236-6.4-.433-9.016,2-2.974,5.319-3.823,8.817-3.767,2.9,0,6.834,1.424,9.123-.921a3.682,3.682,0,0,0,.541-4.273c-2.524-4.688-11.413,1.028-15.7-2.4-2.6-2.109-1.983-4.957,3.389-8.618,2.055-1.352,5.625-3.57,8.474-5.14a36.12,36.12,0,0,0-8.618-4.9c-.109-.054-.234-.072-.343-.126a9.55,9.55,0,0,1-5.588,3.5c-5.013.9-8.835,6.275-12.73,5.319-3.823-.921-.45-3.552-1.3-5.59-.7-1.531-4.8-1.659-7.629-3.264-.2.09-.4.144-.594.218a35.3,35.3,0,0,0-6.78,3.7c3.138,2.758,7,6.815,6.942,10.368-.072,3.19-2.326,5.66-4.778,7.536-6.762,5.247-3.985,12.89,2.849,16.84a19.285,19.285,0,0,0,5.409,2.162c1.731.4,3.732.577,4.887,2,1.675,1.875,1.044,5.138,0,7.121-1.407,3.085-4.112,5.662-5.085,8.854-.649,2-.974,3.533-3.156,4.4-4,1.587-8.437-6.905-9.736-9.3a21.353,21.353,0,0,1-2.633-8.06c-.253-3.245.505-6.778-1.225-9.808-1.876-3.319-6.131-5.463-10.025-7.033-.127.649-.271,1.317-.343,1.983a31.6,31.6,0,0,0-.343,4.741,38.14,38.14,0,0,0,44.752,37.594,7.8,7.8,0,0,0-1.243,3.282l-.109.793c-.018.09-.018.2-.037.288a6.665,6.665,0,0,0,.037,1.587,41.844,41.844,0,0,1-5.228.325,43.9,43.9,0,1,1,43.938-43.868Z"/><g transform="translate(313.35 383.998)"><path class="a" d="M310.7,364.113a3.025,3.025,0,0,0-.83,1.762s-.36,4.974-.556,8.849l-12.174,6.708a2.844,2.844,0,0,0-1.464,2.487v2.373a1.233,1.233,0,0,0,.5,1,1.253,1.253,0,0,0,1.1.2l12.29-3.62c.3,4.057.405,8.877.432,10.3l-2.462,1.5a2.483,2.483,0,0,0-1.175,1.784l-.126.85a1.26,1.26,0,0,0,.442,1.138,1.228,1.228,0,0,0,1.193.216l4.485-1.535,4.479,1.53a1.244,1.244,0,0,0,1.64-1.349l-.119-.85a2.5,2.5,0,0,0-1.178-1.784l-2.464-1.5c.028-1.421.135-6.248.433-10.3l12.293,3.62a1.242,1.242,0,0,0,1.588-1.2l0-2.373a2.846,2.846,0,0,0-1.468-2.487l-12.174-6.708c-.2-3.875-.556-8.849-.556-8.86a2.982,2.982,0,0,0-.832-1.751,2.4,2.4,0,0,0-1.729-.8A2.374,2.374,0,0,0,310.7,364.113Z" transform="translate(-295.676 -363.31)"/></g></g></svg>